<?xml version="1.0" encoding="UTF-8"?><svg xmlns="http://www.w3.org/2000/svg" xmlns:xlink="http://www.w3.org/1999/xlink" width="375pt" zoomAndPan="magnify" viewBox="0 0 375 374.999991" height="374.999991pt" preserveAspectRatio="xMidYMid meet" version="1.2"><g xml:id="surface1" id="surface1"><path style=" stroke:none;fill-rule:nonzero;fill:rgb(0%,0%,0%);fill-opacity:1;" d="M 96.007812 34.90625 L 96.007812 123.574219 L 263.757812 26.734375 C 240.074219 15.496094 213.894531 9.59375 187.515625 9.59375 C 158.171875 9.59375 129.109375 16.890625 103.476562 30.6875 C 100.898438 32.050781 98.40625 33.457031 96.007812 34.90625 Z M 91.203125 136.683594 C 90.382812 136.683594 89.546875 136.464844 88.8125 136.039062 C 87.320312 135.175781 86.410156 133.59375 86.410156 131.878906 L 86.410156 32.242188 C 86.410156 30.585938 87.261719 29.046875 88.652344 28.183594 C 91.917969 26.117188 95.390625 24.113281 98.949219 22.222656 C 125.960938 7.691406 156.589844 0 187.515625 0 C 218.40625 0 249.039062 7.691406 276.109375 22.238281 C 277.632812 23.058594 278.597656 24.652344 278.628906 26.382812 C 278.65625 28.125 277.734375 29.75 276.226562 30.613281 L 93.605469 136.039062 C 92.871094 136.464844 92.035156 136.683594 91.203125 136.683594 "/><path style=" stroke:none;fill-rule:nonzero;fill:rgb(0%,0%,0%);fill-opacity:1;" d="M 288.617188 140.199219 L 288.617188 333.882812 C 335.066406 301.785156 363.558594 249.800781 365.316406 193.140625 C 365.375 191.265625 365.40625 189.390625 365.40625 187.484375 C 365.40625 186.488281 365.390625 185.507812 365.375 184.511719 Z M 283.828125 347.5625 C 283.023438 347.5625 282.214844 347.359375 281.484375 346.960938 C 279.960938 346.113281 279.023438 344.5 279.023438 342.757812 L 279.023438 131.878906 C 279.023438 130.164062 279.945312 128.582031 281.425781 127.734375 C 282.90625 126.871094 284.734375 126.871094 286.214844 127.734375 L 372.507812 177.554688 C 373.945312 178.386719 374.851562 179.898438 374.910156 181.550781 C 374.96875 183.53125 375 185.507812 375 187.484375 C 375 189.492188 374.96875 191.46875 374.910156 193.445312 C 372.964844 256.246094 339.859375 313.59375 286.347656 346.832031 C 285.585938 347.3125 284.707031 347.5625 283.828125 347.5625 "/><path style=" stroke:none;fill-rule:nonzero;fill:rgb(0%,0%,0%);fill-opacity:1;" d="M 10.167969 201.882812 C 14.664062 258.015625 45.441406 308.699219 93.734375 338.6875 C 96.078125 340.164062 98.554688 341.617188 101.101562 343.035156 L 177.890625 298.679688 Z M 101.160156 353.335938 C 100.386719 353.335938 99.609375 353.144531 98.90625 352.761719 C 95.316406 350.84375 91.875 348.851562 88.652344 346.832031 C 35.15625 313.59375 2.035156 256.257812 0.0898438 193.445312 C 0.0429688 191.703125 0.9375 190.0625 2.433594 189.167969 C 3.910156 188.277344 5.773438 188.261719 7.296875 189.140625 L 189.886719 294.519531 C 191.367188 295.386719 192.289062 296.96875 192.289062 298.679688 C 192.289062 300.394531 191.367188 301.976562 189.886719 302.839844 L 103.5625 352.691406 C 102.816406 353.128906 101.996094 353.335938 101.160156 353.335938 "/><path style=" stroke:none;fill-rule:nonzero;fill:rgb(0%,0%,0%);fill-opacity:1;" d="M 9.625 190.488281 L 86.410156 234.800781 L 86.410156 41.117188 C 39.945312 73.183594 11.441406 125.171875 9.683594 181.890625 C 9.625 183.765625 9.59375 185.609375 9.59375 187.484375 C 9.59375 188.496094 9.609375 189.492188 9.625 190.488281 Z M 91.203125 247.910156 C 90.382812 247.910156 89.546875 247.703125 88.8125 247.265625 L 2.492188 197.445312 C 1.054688 196.609375 0.148438 195.101562 0.0898438 193.445312 C 0.03125 191.46875 0 189.492188 0 187.484375 C 0 185.507812 0.03125 183.558594 0.0898438 181.582031 C 2.035156 118.738281 35.15625 61.375 88.683594 28.152344 C 90.160156 27.246094 92.023438 27.203125 93.546875 28.035156 C 95.070312 28.886719 96.007812 30.496094 96.007812 32.242188 L 96.007812 243.121094 C 96.007812 244.832031 95.097656 246.414062 93.605469 247.265625 C 92.871094 247.703125 92.035156 247.910156 91.203125 247.910156 "/><path style=" stroke:none;fill-rule:nonzero;fill:rgb(0%,0%,0%);fill-opacity:1;" d="M 111.253906 348.25 C 134.957031 359.5 161.148438 365.40625 187.515625 365.40625 C 216.824219 365.40625 245.886719 358.109375 271.566406 344.3125 C 274.117188 342.949219 276.621094 341.542969 279.023438 340.078125 L 279.023438 251.394531 L 189.917969 302.839844 C 189.800781 302.898438 189.695312 302.957031 189.578125 303.015625 Z M 187.515625 375 C 156.636719 375 125.992188 367.308594 98.890625 352.761719 C 97.367188 351.941406 96.402344 350.347656 96.371094 348.617188 C 96.34375 346.875 97.265625 345.25 98.773438 344.382812 L 185.082031 294.535156 C 185.199219 294.460938 185.300781 294.402344 185.417969 294.359375 L 281.425781 238.929688 C 282.90625 238.066406 284.734375 238.066406 286.214844 238.929688 C 287.710938 239.78125 288.617188 241.363281 288.617188 243.089844 L 288.617188 342.757812 C 288.617188 344.414062 287.769531 345.953125 286.375 346.832031 C 283.09375 348.894531 279.625 350.886719 276.078125 352.777344 C 249.039062 367.308594 218.40625 375 187.515625 375 "/><path style=" stroke:none;fill-rule:nonzero;fill:rgb(0%,0%,0%);fill-opacity:1;" d="M 197.109375 76.289062 L 364.832031 173.113281 C 360.335938 116.96875 329.558594 66.296875 281.292969 36.3125 C 281.277344 36.3125 281.277344 36.296875 281.265625 36.296875 C 278.90625 34.804688 276.445312 33.355469 273.910156 31.960938 Z M 370.105469 186.503906 C 369.285156 186.503906 368.453125 186.285156 367.703125 185.859375 L 185.113281 80.433594 C 183.632812 79.585938 182.710938 78.003906 182.710938 76.289062 C 182.710938 74.574219 183.632812 72.976562 185.113281 72.128906 L 271.433594 22.308594 C 272.871094 21.472656 274.628906 21.445312 276.078125 22.222656 C 279.636719 24.113281 283.09375 26.117188 286.363281 28.167969 C 339.859375 61.390625 372.964844 118.738281 374.910156 181.550781 C 374.957031 183.296875 374.0625 184.9375 372.566406 185.828125 C 371.820312 186.285156 370.957031 186.503906 370.105469 186.503906 "/><path style=" stroke:none;fill-rule:nonzero;fill:rgb(100%,8.628845%,8.628845%);fill-opacity:1;" d="M 154.230469 148.617188 C 164.984375 154.707031 170.484375 172.011719 174.488281 182.9375 C 176.027344 187.066406 182.667969 188.550781 184.015625 183.273438 C 186.917969 171.582031 191.476562 160.289062 199.230469 150.945312 C 217.039062 129.386719 218.039062 168.851562 215.019531 179.207031 C 208.933594 200.355469 196.402344 218.675781 186.5 238.140625 C 172.1875 222.65625 160.839844 198.855469 152.632812 180.84375 C 150.878906 177.097656 141.519531 141.433594 154.230469 148.617188 Z M 148.695312 204.203125 C 157.234375 220.535156 182.445312 258.609375 187.371094 251.519531 C 208.378906 221.046875 244.589844 179.929688 223.644531 143.203125 C 210.058594 119.378906 188.28125 149.789062 178.898438 169.285156 C 167.226562 147.109375 142.957031 116.378906 134.164062 155.746094 C 130.585938 171.71875 141.625 190.710938 148.695312 204.203125 "/></g></svg>